<svg width="14" height="14" viewBox="0 0 14 14" fill="none" xmlns="http://www.w3.org/2000/svg">
<path fill-rule="evenodd" clip-rule="evenodd" d="M6.66667 12C9.61219 12 12 9.61219 12 6.66667C12 3.72115 9.61219 1.33333 6.66667 1.33333C3.72115 1.33333 1.33333 3.72115 1.33333 6.66667C1.33333 9.61219 3.72115 12 6.66667 12ZM6.66667 13.3333C10.3486 13.3333 13.3333 10.3486 13.3333 6.66667C13.3333 2.98477 10.3486 0 6.66667 0C2.98477 0 0 2.98477 0 6.66667C0 10.3486 2.98477 13.3333 6.66667 13.3333Z" fill="#246FE5"/>
<path fill-rule="evenodd" clip-rule="evenodd" d="M6.66667 3C7.03486 3 7.33333 3.29848 7.33333 3.66667V6.72386L8.80474 8.19526C9.06509 8.45561 9.06509 8.87772 8.80474 9.13807C8.54439 9.39842 8.12228 9.39842 7.86193 9.13807L6.19526 7.4714C6.07024 7.34638 6 7.17681 6 7V3.66667C6 3.29848 6.29848 3 6.66667 3Z" fill="#246FE5"/>
</svg>
