<?xml version="1.0" encoding="utf-8"?>
<!-- Generator: Adobe Illustrator 27.4.1, SVG Export Plug-In . SVG Version: 6.00 Build 0)  -->
<svg version="1.1" id="Layer_1" xmlns="http://www.w3.org/2000/svg" xmlns:xlink="http://www.w3.org/1999/xlink" x="0px" y="0px"
	 viewBox="0 0 792 612" style="enable-background:new 0 0 792 612;" xml:space="preserve">
<style type="text/css">
	.st0{fill:url(#SVGID_1_);}
</style>
<linearGradient id="SVGID_1_" gradientUnits="userSpaceOnUse" x1="333.9143" y1="443.0046" x2="472.8294" y2="251.8044">
	<stop  offset="0" style="stop-color:#A4A7A9"/>
	<stop  offset="5.611028e-02" style="stop-color:#C0C1C2"/>
	<stop  offset="0.1158" style="stop-color:#D8D8D9"/>
	<stop  offset="0.1761" style="stop-color:#ECEBEB"/>
	<stop  offset="0.2365" style="stop-color:#F9F8F8"/>
	<stop  offset="0.2976" style="stop-color:#FFFFFF"/>
	<stop  offset="0.3194" style="stop-color:#DDDCDC"/>
	<stop  offset="0.3569" style="stop-color:#B8B6B7"/>
	<stop  offset="0.3942" style="stop-color:#9D9D9E"/>
	<stop  offset="0.4306" style="stop-color:#8C8C8D"/>
	<stop  offset="0.4658" style="stop-color:#828384"/>
	<stop  offset="0.4985" style="stop-color:#7F8081"/>
	<stop  offset="0.5045" style="stop-color:#8A8B8C"/>
	<stop  offset="0.5193" style="stop-color:#A4A3A4"/>
	<stop  offset="0.536" style="stop-color:#BCBBBB"/>
	<stop  offset="0.5549" style="stop-color:#D1D0D0"/>
	<stop  offset="0.5769" style="stop-color:#E3E2E2"/>
	<stop  offset="0.6041" style="stop-color:#F1F0F0"/>
	<stop  offset="0.6423" style="stop-color:#FBFBFB"/>
	<stop  offset="0.7484" style="stop-color:#FFFFFF"/>
	<stop  offset="0.8019" style="stop-color:#D4D4D4"/>
	<stop  offset="0.8554" style="stop-color:#B8B9BA"/>
	<stop  offset="0.9074" style="stop-color:#A5A7A8"/>
	<stop  offset="0.9566" style="stop-color:#9A9C9E"/>
	<stop  offset="1" style="stop-color:#96999B"/>
</linearGradient>
<path class="st0" d="M420.5,350.9L405.9,393h-13.4l-12.8-25l-8.7,25h-14.1l12.6-36.4l-6.3-5.7h8.3l0,0h14.1l12,25l8.7-25H420.5z
	 M438.7,361.1h27.4l3.5-10.2H433c0,0,0,0,0,0h-12.8l6,5.5L413.5,393h14.1l4.6-13.3l-3.9-3.5h9.1l0,0h20l3-8.5h-24l0.9-2.7l-4.3-3.9
	L438.7,361.1L438.7,361.1z M338.5,365.3h25.3l3.1-8.8h-33.3c0,0,0,0,0,0h-11l5.2,4.7l-8.7,25.1c-1.2,3.4,1.6,6.8,5.5,6.8h29.7
	l3.1-8.8H332l1-3l-3-2.8h7.9l0,0h18.6l2.6-7.4h-22.5l0.7-2.2l-3.9-3.6L338.5,365.3L338.5,365.3z M322.4,359.9
	c-0.3,1.3-0.8,2.7-1.4,4c-0.6,1.3-1.4,2.5-2.3,3.6c-0.9,1.1-1.8,1.9-2.7,2.5c1.5,1,2.5,2.6,2.9,4.7c0.3,1.8,0.2,3.8-0.4,5.9
	c-0.6,2.1-1.6,4.1-2.9,6c-1.4,1.9-3,3.4-5,4.7c-2,1.2-4.2,1.9-6.7,1.9h-38.6l12.6-36.5l-6.2-5.6h8.1l0,0h33.8c2.5,0,4.5,0.5,6.1,1.4
	c1.6,1,2.5,2.3,2.8,4C322.7,357.3,322.7,358.5,322.4,359.9z M304.4,377.7c-0.2-1.1-1.1-1.7-2.7-1.7h-16.5l0,0h-4.4l3.4,3l-1.3,3.8
	h16.5c1,0,2-0.3,2.9-0.9c0.9-0.6,1.5-1.3,1.7-2l0.3-0.9C304.4,378.5,304.5,378.1,304.4,377.7z M307.1,362.9
	c-0.2-1.2-1.1-1.9-2.7-1.9h-14.1l0,0h-5.1l3.9,3.5l-1.1,3.3h14.1c1,0,2-0.3,2.9-0.9c0.9-0.6,1.5-1.3,1.8-2.1l0.3-0.8
	C307.2,363.7,307.2,363.3,307.1,362.9z M483.3,350.9h-6.2h-8.3l6.3,5.7l-1.5,4.5H491L480,393h14.1l9.5-27.4l-5-4.5h6.6l0,0h17.5
	l3.5-10.2H483.3z M424.8,293.3l-0.9,21.7c0,0.5,0.2,1.1,0.6,1.4l18.9,14.6c0.4,0.3,0.8,0.4,1.3,0.3l17.5-2.7
	c0.8-0.1,1.3-0.7,1.4-1.5l1.9-23.3c0-0.6-0.2-1.1-0.6-1.4l-18.6-14.6c-0.4-0.3-0.9-0.4-1.4-0.3l-18.8,4.3
	C425.3,291.9,424.8,292.6,424.8,293.3z M447.4,287.1l15.8-10.6l15.5-2l-0.1-1l-15.8,2.1l-13.4,9l5.8-15l12.2-11.5l-0.7-0.7
	L454.3,269L447.4,287.1z M469.6,260.4l4.3-3.2l-0.5-5l-3.9-1l-4.3,3.2l0.3,4.6L469.6,260.4z M478.7,271.8l-2.4,2.6l1.7,3.4l4.4,0.5
	l2.5-3.5l-2.1-3.1H478.7z M408.2,307.4l-5.7,12.2c-0.1,0.2-0.1,0.5,0.1,0.7l9.7,9.8c0.3,0.3,0.8,0.2,1-0.1l7.9-13
	c0.2-0.3,0.1-0.6-0.2-0.8l-11.8-9.1C408.8,306.9,408.4,307,408.2,307.4z M384,301l-11.1,24.4c-0.1,0.2,0,0.4,0.1,0.5l19,19
	c0.1,0.1,0.3,0.2,0.5,0.1l13.9-3.1c0.4-0.1,0.5-0.5,0.2-0.8L388,322.5c-0.1-0.1-0.2-0.4-0.1-0.6l10.9-23c0.2-0.4-0.1-0.8-0.5-0.7
	l-13.9,2.4C384.2,300.7,384.1,300.8,384,301z M354.9,306.6L343.8,331c-0.1,0.2,0,0.4,0.1,0.5l19,19c0.1,0.1,0.3,0.2,0.5,0.1
	l13.9-3.1c0.4-0.1,0.5-0.5,0.2-0.8l-18.7-18.7c-0.1-0.1-0.2-0.4-0.1-0.6l10.9-23c0.2-0.4-0.1-0.8-0.5-0.7l-13.9,2.4
	C355.1,306.4,355,306.5,354.9,306.6z M339.9,328.6l-22.7,10.8l24.1-5.4c0.1,0,0.1-0.1,0-0.2l-2.7-2c0,0-0.1-0.1,0-0.1l1.4-2.9
	C340.1,328.6,340,328.5,339.9,328.6z M408.8,304.9l15.2-32.7l-6.7-36.5L393.1,218l-16.5,25.2l7.9,43.2L408.8,304.9z"/>
</svg>
