<?xml version="1.0" encoding="utf-8"?>
<!-- Generator: Adobe Illustrator 27.5.0, SVG Export Plug-In . SVG Version: 6.00 Build 0)  -->
<svg version="1.1" id="Layer_1" xmlns="http://www.w3.org/2000/svg" xmlns:xlink="http://www.w3.org/1999/xlink" x="0px" y="0px"
	 viewBox="0 0 792 612" style="enable-background:new 0 0 792 612;" xml:space="preserve">
<style type="text/css">
	.st0{fill:#FFFFFF;}
</style>
<g>
	<g>
		<g>
			<ellipse transform="matrix(0.7375 -0.6754 0.6754 0.7375 -47.8123 428.8481)" class="st0" cx="527.7" cy="275.9" rx="6" ry="5"/>
			<path class="st0" d="M511.7,340.6l-0.9-3.7l-2.7-11.3l-3.2-12.3l-3.5-13.2l-3.3-12.6l-4.5-17h16l11.5,42.6l2.9,10.5l0.4,1.5
				C526.5,332.3,519.7,340.6,511.7,340.6z"/>
			<polygon class="st0" points="525.7,324.3 533,282.7 520.1,282.7 517.8,295.4 			"/>
			<polygon class="st0" points="483.7,312.1 495.6,291.8 497.4,288.9 497.1,287.9 492.9,271.8 483.4,287.1 467.8,312.1 			"/>
			<path class="st0" d="M503.7,313.2h-36.6l-7.6,12.2c-0.9,1.5-1.5,2.9-1.7,4.4c-1,5.7,2.7,10.8,8.9,10.8l8.9-15H507L503.7,313.2z"
				/>
		</g>
	</g>
	<g>
		<path class="st0" d="M435,285.8c-0.3-1.5-1-2.8-2-4.1c-1.8-2.2-4.7-3.3-8.6-3.3h-32.6l-1.3,7.5h0l-2.5,14l0,0l-2.2,12.2h32.6
			c3.8,0,7.1-1.1,9.8-3.4c2.7-2.2,4.3-4.8,4.8-7.7l2-11.4C435.3,288.2,435.3,287,435,285.8z M424,299.4c-0.3,1.5-1,2.7-2.3,3.7
			c-1.2,0.9-2.6,1.4-4.3,1.4h-20.9l0.8-4.6l0,0l0.1-0.7l1.3-7.5h0l1-5.8l20.9,0c0.1,0,0.2,0,0.3,0c1.5,0.1,2.7,0.4,3.6,1.3
			c0.9,0.9,1.2,2.1,0.9,3.7L424,299.4z"/>
		<polygon class="st0" points="303.4,278.4 262.5,278.4 258.7,285.9 275.3,285.9 270.7,312.1 280,312.1 284.6,285.9 299.5,285.9 		
			"/>
		<path class="st0" d="M329.1,299.1c4.5,0,12.2-0.1,14-10.6c1.5-8.8-5.6-10.1-10.4-10.1h-26.8l-3.9,7.5h9.3l0,0h19.3
			c1.1,0,3.5,0.1,3,2.9c-0.5,2.9-2.7,2.8-4.1,2.8h-19.1l0,0h-9.4l20.4,20.4h14l-13.3-13H329.1z"/>
		<g>
			<polygon class="st0" points="351.9,302.1 363.4,287.2 366.9,295.4 376,292 370.2,278.4 360,278.4 333.7,312.1 344.3,312.1 
				385,289.8 			"/>
			<polygon class="st0" points="377.4,295.1 368.7,299.9 373.9,312.1 384.6,312.1 			"/>
		</g>
		<polygon class="st0" points="443.9,298.5 463.6,298.5 467.9,291.6 445.1,291.6 446.1,285.8 472,285.8 476.7,278.3 438.2,278.3 
			436.9,285.8 436.9,285.8 435.8,291.6 435.8,291.6 435.6,292.7 435.4,294.2 435.4,294.2 432.2,312.1 465.7,312.1 470.3,304.6 
			442.8,304.6 		"/>
	</g>
</g>
</svg>
