<?xml version="1.0" encoding="utf-8"?>
<!-- Generator: Adobe Illustrator 27.5.0, SVG Export Plug-In . SVG Version: 6.00 Build 0)  -->
<svg version="1.1" id="Layer_1" xmlns="http://www.w3.org/2000/svg" xmlns:xlink="http://www.w3.org/1999/xlink" x="0px" y="0px"
	 viewBox="0 0 792 612" style="enable-background:new 0 0 792 612;" xml:space="preserve">
<style type="text/css">
	.st0{fill:url(#SVGID_1_);}
	.st1{fill:url(#SVGID_00000083809251370906854190000015357324034577068928_);}
</style>
<linearGradient id="SVGID_1_" gradientUnits="userSpaceOnUse" x1="76.9455" y1="281.8398" x2="583.3352" y2="281.8398">
	<stop  offset="0" style="stop-color:#27306C"/>
	<stop  offset="0.1361" style="stop-color:#2F3972"/>
	<stop  offset="0.4062" style="stop-color:#485382"/>
	<stop  offset="0.781" style="stop-color:#717FA0"/>
	<stop  offset="1" style="stop-color:#8DA2B8"/>
</linearGradient>
<path class="st0" d="M481.8,295.3c-1.2,6.7-4.9,12.8-11.1,17.9c-6.3,5.3-13.9,7.9-22.8,7.9h-75.7l5.1-28.3l5.8-32.5l3-17.4h75.7
	c9.1,0,15.8,2.6,20,7.7c2.3,3,3.9,6,4.6,9.5c0.7,2.8,0.7,5.6,0,8.8L481.8,295.3z M462.1,263.3c-2.1-2.1-4.9-2.8-8.4-3
	c-0.2,0-0.5,0-0.7,0h-48.5l-2.3,13.5l-3,17.4l-0.2,1.6l-1.9,10.7h48.5c3.9,0,7.2-1.2,10-3.3c3-2.3,4.6-5.1,5.3-8.6l3.3-19.7
	C464.9,268.1,464.2,265.3,462.1,263.3z M85.8,242.8l-8.8,17.4h38.6l-10.7,60.9h21.6l10.7-60.9h34.6l9.1-17.4H85.8z M568.5,303.7
	h-63.9l2.6-14.2h45.8l10-16h-53l2.3-13.5h60.2l10.9-17.4h-89.4l-3,17.4l-2.6,13.5l-0.5,2.6l-0.5,3.5l-7.4,41.6h77.8L568.5,303.7z
	 M320.2,263.3l8.1,19l21.1-7.9l-13.5-31.6h-23.7l-59.3,76l-28.8-28.1h16.3v0.2c10.5,0,28.3-0.2,32.5-24.6
	c3.5-20.4-13-23.5-24.2-23.5h-62.3l-9.1,17.4h21.6H244c2.6,0,8.1,0.2,7,6.7c-1.2,6.7-6.3,6.5-9.5,6.5H197h-21.8l47.4,47.4h28.8
	l-0.2,0.2h24.6l94.5-51.8l-76.9,28.6L320.2,263.3z M332.5,292.8l12.1,28.3h24.9l-16.7-39.5L332.5,292.8z"/>
<linearGradient id="SVGID_00000035489001266104148550000006084795164846695615_" gradientUnits="userSpaceOnUse" x1="539.0555" y1="305.8083" x2="714.7549" y2="305.8083">
	<stop  offset="0" style="stop-color:#2B2973"/>
	<stop  offset="1" style="stop-color:#036585"/>
</linearGradient>
<path style="fill:url(#SVGID_00000035489001266104148550000006084795164846695615_);" d="M562.7,321.1l36.2-58.1l22.1-35.5l9.8,37.4
	l0.7,2.3l-4.2,6.7l-27.6,47.2H562.7z M709.7,245.6c5.7-5.2,6.8-13.2,2.4-18c-4.3-4.7-12.4-4.4-18.1,0.8c-5.7,5.2-6.8,13.2-2.4,18
	C695.9,251.2,704,250.8,709.7,245.6z M678.8,282.3l18.4,67.1l17-96.6h-30L678.8,282.3z M693.2,347.8l-6.7-24.4l-26.7-99h-37.2
	L633,264l7.7,29.3l8.1,30.7l7.4,28.6l6.3,26.2l2.1,8.6c18.6,0,34.4-19.3,29.5-36L693.2,347.8z M561,323.7L543.4,352
	c-2.1,3.5-3.5,6.7-3.9,10.2c-2.3,13.2,6.3,25.1,20.7,25.1l20.7-34.8h72.9l-7.7-28.8H561z"/>
</svg>
